<svg width="48" height="48" viewBox="0 0 48 48" fill="none" xmlns="http://www.w3.org/2000/svg">
<rect x="0.5" y="0.5" width="47" height="47" rx="23.5" stroke="black"/>
<path d="M36 24C36 17.3726 30.6274 12 24 12C17.3726 12 12 17.3726 12 24C12 29.9895 16.3882 34.954 22.125 35.8542V27.4687H19.0781V24H22.125V21.3562C22.125 18.3487 23.9165 16.6875 26.6576 16.6875C27.9705 16.6875 29.3438 16.9219 29.3438 16.9219V19.875H27.8306C26.3399 19.875 25.875 20.8 25.875 21.749V24H29.2031L28.6711 27.4687H25.875V35.8542C31.6118 34.954 36 29.9895 36 24Z" fill="#100F0D"/>
<path d="M28.6711 27.4687L29.2031 24H25.875V21.749C25.875 20.8 26.3399 19.875 27.8306 19.875H29.3438V16.9219C29.3438 16.9219 27.9705 16.6875 26.6576 16.6875C23.9165 16.6875 22.125 18.3487 22.125 21.3562V24H19.0781V27.4687H22.125V35.8542C22.7359 35.9501 23.3621 36 24 36C24.6379 36 25.2641 35.9501 25.875 35.8542V27.4687H28.6711Z" fill="white"/>
</svg>
