<svg width="96" height="96" viewBox="0 0 96 96" fill="none" xmlns="http://www.w3.org/2000/svg">
<g clip-path="url(#clip0_1702_1224)">
<path d="M41.0798 48H54.9198C58.6398 48 61.4398 44.68 60.8398 41L59.6398 33.84C58.6798 28.16 53.7598 24 47.9998 24C42.2398 24 37.3198 28.16 36.3598 33.88L35.1598 41.04C34.5598 44.68 37.3598 48 41.0798 48ZM44.2398 35.16C44.5598 33.32 46.1198 32 47.9998 32C49.8798 32 51.4398 33.32 51.7598 35.16L52.5598 40H43.4398L44.2398 35.16Z" fill="black"/>
<path d="M6.64009 44.44C6.12009 45.48 5.92009 46.72 6.24009 47.96C6.88009 50.72 9.28009 52.08 12.3601 51.96C12.3601 51.96 18.3201 51.96 20.1601 51.96C23.4801 51.96 26.2001 49.64 26.2001 46.8C26.2001 46.24 26.0801 45.72 25.9201 45.2C25.8801 45.08 25.8801 45 25.9601 44.88C26.3201 44.24 26.5201 43.52 26.5201 42.76C26.5201 41.52 25.9601 40.36 25.0801 39.48C24.9601 39.36 24.9601 39.24 25.0001 39.08C25.2801 38.28 25.2801 37.36 25.0401 36.48C24.4001 34.76 22.8401 33.6 21.0801 33.52C20.9601 33.52 20.8801 33.48 20.8001 33.4C20.1201 32.56 18.8801 32 17.4801 32C16.2801 32 15.2001 32.4 14.4801 33.04C14.3601 33.16 14.2401 33.16 14.1201 33.12C13.5601 32.88 12.9201 32.76 12.2801 32.76C9.68009 32.76 7.56009 34.72 7.32009 37.24C7.32009 37.32 7.28009 37.4 7.20009 37.48C6.04009 38.52 5.36009 40.08 5.56009 41.68C5.68009 42.56 6.04009 43.4 6.56009 44.08C6.68009 44.16 6.68009 44.32 6.64009 44.44Z" fill="black"/>
<path d="M64.96 54.6C60.28 52.52 54.52 51 48 51C41.48 51 35.72 52.56 31.04 54.6C26.72 56.52 24 60.84 24 65.56V72H72V65.56C72 60.84 69.28 56.52 64.96 54.6ZM32.28 64C32.64 63.08 33.36 62.32 34.24 61.92C38.64 59.96 43.28 59 47.96 59C52.68 59 57.28 60 61.68 61.92C62.6 62.32 63.28 63.08 63.64 64H32.28Z" fill="black"/>
<path d="M4.88 58.32C1.92 59.6 0 62.48 0 65.72V72H18V65.56C18 62.24 18.92 59.12 20.52 56.4C19.04 56.16 17.56 56 16 56C12.04 56 8.28 56.84 4.88 58.32Z" fill="black"/>
<path d="M91.12 58.32C87.72 56.84 83.96 56 80 56C78.44 56 76.96 56.16 75.48 56.4C77.08 59.12 78 62.24 78 65.56V72H96V65.72C96 62.48 94.08 59.6 91.12 58.32Z" fill="black"/>
<path d="M88.0001 44V42C88.0001 37.6 84.4001 34 80.0001 34H72.0001C70.3201 34 69.4001 35.92 70.4401 37.24L73.2401 39.76C72.4801 41 72.0001 42.44 72.0001 44C72.0001 48.4 75.6001 52 80.0001 52C84.4001 52 88.0001 48.4 88.0001 44Z" fill="black"/>
</g>
<defs>
<clipPath id="clip0_1702_1224">
<rect width="96" height="96" fill="white"/>
</clipPath>
</defs>
</svg>
