<svg width="48" height="48" viewBox="0 0 48 48" fill="none" xmlns="http://www.w3.org/2000/svg">
<rect x="0.5" y="0.5" width="47" height="47" rx="23.5" fill="black"/>
<rect x="0.5" y="0.5" width="47" height="47" rx="23.5" stroke="black"/>
<path d="M32.4491 32.4496H28.8931V26.8805C28.8931 25.5525 28.8694 23.8429 27.0436 23.8429C25.1915 23.8429 24.9081 25.2899 24.9081 26.7838V32.4492H21.352V20.9969H24.7658V22.562H24.8136C25.1553 21.9778 25.649 21.4973 26.2421 21.1715C26.8352 20.8457 27.5056 20.6869 28.1819 20.712C31.7861 20.712 32.4506 23.0828 32.4506 26.167L32.4491 32.4496ZM17.3396 19.4314C16.9315 19.4315 16.5325 19.3106 16.1931 19.0839C15.8537 18.8572 15.5891 18.5349 15.4329 18.1578C15.2766 17.7808 15.2357 17.3658 15.3152 16.9655C15.3948 16.5652 15.5912 16.1974 15.8798 15.9088C16.1684 15.6201 16.536 15.4235 16.9363 15.3438C17.3366 15.2641 17.7515 15.3049 18.1286 15.461C18.5057 15.6171 18.8281 15.8816 19.0549 16.2209C19.2817 16.5602 19.4028 16.9592 19.4029 17.3674C19.4029 17.6384 19.3496 17.9067 19.2459 18.1571C19.1423 18.4075 18.9903 18.6351 18.7987 18.8267C18.6071 19.0184 18.3797 19.1705 18.1293 19.2742C17.879 19.378 17.6106 19.4314 17.3396 19.4314ZM19.1176 32.4496H15.5579V20.9969H19.1176V32.4496ZM34.222 12.0016H13.771C13.3068 11.9964 12.8595 12.1757 12.5274 12.5C12.1954 12.8244 12.0057 13.2674 12 13.7316V34.2681C12.0055 34.7325 12.1951 35.1758 12.5271 35.5005C12.8592 35.8252 13.3066 36.0048 13.771 35.9999H34.222C34.6873 36.0057 35.1359 35.8266 35.4693 35.5019C35.8027 35.1772 35.9936 34.7334 36 34.2681V13.7301C35.9934 13.265 35.8024 12.8215 35.469 12.4971C35.1356 12.1728 34.6871 11.994 34.222 12.0002" fill="white"/>
</svg>
